<svg version="1.1" id="Layer_1" xmlns="http://www.w3.org/2000/svg" xmlns:xlink="http://www.w3.org/1999/xlink" x="0px" y="0px"
	 width="100%" viewBox="0 0 218 131" enable-background="new 0 0 218 131" xml:space="preserve">
<path fill="#020102" opacity="1.000000" stroke="none" 
	d="
M120.000000,132.000000 
	C80.000008,132.000000 40.500019,132.000000 1.000021,132.000000 
	C1.000014,88.333351 1.000014,44.666706 1.000007,1.000045 
	C73.666634,1.000030 146.333267,1.000030 218.999908,1.000015 
	C218.999939,44.666622 218.999939,88.333244 218.999969,131.999939 
	C186.166672,132.000000 153.333328,132.000000 120.000000,132.000000 
M191.976456,78.424911 
	C191.652374,78.313950 191.328308,78.202988 190.455673,77.824776 
	C190.268768,77.905037 190.081879,77.985298 189.726059,77.867592 
	C189.587555,77.861221 189.449036,77.854858 189.310532,77.848488 
	C189.495331,77.923546 189.680145,77.998604 189.140701,78.434181 
	C189.095581,78.957001 189.050461,79.479820 188.808823,80.256027 
	C189.237579,81.105492 189.666321,81.954956 190.041397,82.906219 
	C190.041397,82.906219 190.145676,82.954918 190.088913,83.452682 
	C190.356400,84.376656 190.623886,85.300629 190.720901,86.778526 
	C190.629456,87.346039 190.537994,87.913544 190.039047,88.756737 
	C190.186737,88.678543 190.334442,88.600349 190.484161,89.355522 
	C190.434372,89.907486 190.384583,90.459442 190.088699,91.473557 
	C190.093246,91.648018 190.097794,91.822487 189.703964,92.516388 
	C188.475906,94.013763 187.247864,95.511147 185.281067,97.025574 
	C183.314331,97.873055 181.628891,98.583061 181.175888,95.284058 
	C180.700211,91.819969 179.710785,88.426430 179.129379,84.499321 
	C179.070099,84.331070 179.010834,84.162811 179.082550,83.470879 
	C179.049118,83.294075 179.015671,83.117271 179.280136,82.586769 
	C179.502457,82.536827 179.724777,82.486893 179.947098,82.436951 
	C179.841080,82.541443 179.735062,82.645927 179.629059,82.750420 
	C179.418793,82.533676 179.208527,82.316933 179.062454,82.020340 
	C179.062454,82.020340 178.985794,81.952370 179.139709,81.102058 
	C178.981323,78.857124 178.822952,76.612190 178.741241,74.321487 
	C178.741241,74.321487 178.803802,74.257774 179.112701,73.554688 
	C178.116043,69.237869 181.710541,69.754433 184.885147,68.987366 
	C187.678146,68.760887 190.471161,68.534409 194.258682,68.227280 
	C190.379272,62.958923 187.069046,66.133972 183.404556,65.965729 
	C182.308746,65.885292 181.212936,65.804855 180.479980,65.751060 
	C180.479980,60.838459 180.479980,56.222244 180.479980,51.606033 
	C179.647903,51.478149 178.815826,51.350266 177.983749,51.222382 
	C176.653122,58.724491 176.007355,66.363945 175.198944,74.652946 
	C175.202667,75.102211 175.206406,75.551468 174.963028,76.694458 
	C174.360535,78.802277 173.758057,80.910095 173.004501,83.545074 
	C172.946930,83.904953 172.889359,84.264832 172.224991,84.915596 
	C171.397369,86.230125 170.569733,87.544662 169.097305,88.914261 
	C165.595856,88.619690 164.143188,85.555878 165.145203,80.670486 
	C165.585800,78.522339 165.949844,76.358498 166.431473,73.753891 
	C159.663986,74.138298 162.072403,80.778481 158.090958,83.357361 
	C157.559540,79.679520 157.074692,76.323936 156.589844,72.968353 
	C154.288055,79.572136 152.658356,86.014328 156.955154,93.031219 
	C158.695984,90.566689 159.937302,88.809334 161.409393,86.725266 
	C164.378677,89.803307 166.129837,95.833229 172.252655,90.391129 
	C173.824814,90.292610 175.396957,90.194092 176.922089,90.885918 
	C177.266464,95.638184 178.742172,99.591797 184.695007,100.956520 
	C186.753342,99.622375 188.811676,98.288231 191.453629,96.513245 
	C194.560684,91.585098 195.044647,86.410110 192.925415,80.403755 
	C192.629944,79.921608 192.334457,79.439468 191.997025,78.993263 
	C191.997025,78.993263 192.044128,78.968430 191.976456,78.424911 
M22.840677,111.170433 
	C22.840677,111.170433 22.708023,111.187195 22.850266,111.664902 
	C23.233204,111.965134 23.616144,112.265358 24.337358,112.966660 
	C24.509262,112.998871 24.681164,113.031082 25.321819,113.575439 
	C29.233475,114.766724 33.145130,115.958015 37.926197,117.397713 
	C53.583458,116.864731 59.226139,110.682816 56.752594,95.306923 
	C55.605446,88.176102 52.893528,81.241508 50.399273,74.397156 
	C47.386398,66.129692 43.381290,58.204830 40.673767,49.850338 
	C37.878384,41.224754 37.027569,32.192326 39.914005,23.310659 
	C41.391979,18.762873 43.917839,14.994713 50.111809,15.118226 
	C49.635830,18.217239 49.211422,20.980515 48.672596,24.488720 
	C52.850063,22.205208 53.109375,19.284061 53.119198,15.904799 
	C53.127922,12.902426 52.332531,11.923474 49.216171,11.832107 
	C44.325775,11.688725 40.655457,13.635111 38.624512,17.727390 
	C36.886330,21.229763 35.539066,25.168383 35.110001,29.035128 
	C33.490238,43.632339 38.437969,56.800449 44.176552,69.924088 
	C47.941666,78.534569 51.074802,87.560471 53.248325,96.695976 
	C56.700047,111.203880 44.831970,116.958183 31.559330,112.598793 
	C29.368168,111.420929 27.177004,110.243073 24.802456,108.542633 
	C24.335070,107.977745 23.867683,107.412857 23.210939,106.115425 
	C22.797262,104.409012 22.383585,102.702591 22.011820,100.982483 
	C22.011820,100.982483 21.981960,100.950012 22.225014,100.774300 
	C22.390692,100.587959 22.382332,100.409920 22.627188,99.564148 
	C22.713686,99.040833 22.800184,98.517525 23.200981,97.637596 
	C23.200981,97.637596 23.256653,97.165512 23.135202,97.131340 
	C23.135202,97.131340 23.209949,97.232979 23.659027,96.933189 
	C23.962809,96.283722 24.266590,95.634262 24.908587,94.564034 
	C24.943428,94.387489 24.978268,94.210945 25.492668,93.765480 
	C25.470739,92.767014 25.448809,91.768539 25.426878,90.770073 
	C24.542850,91.148994 23.658823,91.527916 22.340893,92.153915 
	C22.130405,92.429756 22.027210,92.741158 21.536489,93.392159 
	C21.314514,93.910912 21.092539,94.429657 20.421740,95.293961 
	C20.262184,95.826454 20.102631,96.358955 19.466351,97.446442 
	C19.270716,98.639069 19.075079,99.831696 18.676693,101.764473 
	C18.809000,102.510719 18.941307,103.256973 19.039539,104.732788 
	C19.614494,106.038200 20.189451,107.343620 20.772589,109.124908 
	C21.084085,109.454437 21.395584,109.783966 21.886972,110.669395 
	C22.204090,110.880966 22.521206,111.092545 22.840677,111.170433 
M148.146149,71.002785 
	C147.848801,70.819252 147.551468,70.635712 147.255356,70.158287 
	C147.255356,70.158287 147.006119,70.002548 146.905853,69.341026 
	C143.075592,67.060280 140.595520,69.590363 139.472443,72.409294 
	C137.740952,76.755394 137.159576,81.546303 135.795486,86.059418 
	C135.318069,87.638947 133.969711,88.955238 132.428040,90.081116 
	C131.617508,89.028206 130.230133,88.038918 130.105652,86.910339 
	C129.745895,83.648621 129.894531,80.330833 129.996124,76.262810 
	C129.730392,75.103134 129.464645,73.943451 129.021759,72.973595 
	C129.021759,72.973595 129.216187,72.801353 129.191299,72.028877 
	C126.297180,69.709320 125.024780,71.837700 124.040520,74.065224 
	C123.179535,76.013763 122.657425,78.112022 121.251152,79.658142 
	C121.470383,74.240402 121.572670,68.814674 121.942223,63.407204 
	C122.301041,58.156796 123.149742,52.931038 123.293648,47.681034 
	C123.329178,46.384644 121.465172,45.036190 120.474373,43.711674 
	C119.873199,44.878422 118.877411,46.004467 118.752007,47.220291 
	C118.480705,49.850571 118.622787,52.527222 118.653419,55.184246 
	C118.771751,65.450104 118.912735,75.715706 118.986900,86.813553 
	C119.486862,89.537941 119.743294,92.337234 120.552010,94.966660 
	C121.446663,97.875511 122.904305,98.132324 124.595886,95.431198 
	C126.062019,95.954460 127.528152,96.477730 129.757324,97.201950 
	C131.170227,95.445801 132.583145,93.689651 134.555267,91.192528 
	C135.101364,91.388786 135.885849,91.417938 136.158051,91.806213 
	C140.698792,98.283401 141.006302,98.308426 145.353210,92.124680 
	C145.927734,93.063347 146.310028,94.176506 147.082535,94.824455 
	C148.014191,95.605881 149.276993,95.992508 150.396469,96.550041 
	C151.423264,94.370331 152.450043,92.190620 153.476822,90.010902 
	C152.266724,89.685829 151.056641,89.360764 149.815262,88.182442 
	C149.733047,86.481949 149.650833,84.781448 149.801483,82.194962 
	C149.384109,78.661331 148.966736,75.127693 148.513931,71.490982 
	C148.513931,71.490982 148.407516,71.467270 148.146149,71.002785 
M110.002205,101.573845 
	C109.894615,100.371216 109.787025,99.168587 109.740768,97.133072 
	C109.381584,94.442123 109.022400,91.751175 108.475883,88.669037 
	C108.380249,88.392326 108.237213,88.142784 108.064987,87.021797 
	C107.987556,84.016769 107.910118,81.011749 107.983620,77.079262 
	C107.978058,69.015808 107.972488,60.952358 108.261185,52.448814 
	C108.443787,51.617748 108.626381,50.786682 109.324867,49.340355 
	C109.441055,48.552647 109.557243,47.764938 109.946068,46.185921 
	C109.972313,45.361160 110.201599,44.476692 109.980461,43.724674 
	C109.580391,42.364193 108.911522,41.082756 108.354881,39.768318 
	C107.565521,41.003490 106.387405,42.149078 106.077324,43.494694 
	C105.604507,45.546436 105.732132,47.736542 105.323624,50.616508 
	C105.297073,51.411472 105.270523,52.206440 105.032059,53.879875 
	C105.071739,56.584526 105.111420,59.289177 105.029671,62.832756 
	C105.028374,64.243561 105.027077,65.654373 104.812164,67.254799 
	C104.703255,67.565132 104.761971,67.821083 104.785889,68.653137 
	C104.817436,69.089096 104.848976,69.525063 104.578888,70.437004 
	C104.624924,70.978035 104.670967,71.519066 104.415916,72.703773 
	C104.374397,73.174438 104.332878,73.645111 103.534935,74.270515 
	C99.478943,76.383018 95.745728,78.595955 94.620491,83.708977 
	C93.810204,87.390877 92.123589,90.879921 90.130775,94.518936 
	C89.375549,91.018578 88.620316,87.518219 88.034958,83.196793 
	C88.199532,79.441399 88.364098,75.686005 88.732330,71.315475 
	C88.737122,70.885544 88.741905,70.455620 88.993477,69.179893 
	C89.461044,64.399139 90.091949,59.626938 90.342728,54.834843 
	C90.531776,51.222328 90.323441,47.578255 90.077782,43.962791 
	C90.028442,43.236588 89.013657,42.575985 88.444016,41.885132 
	C87.729965,42.641994 86.696159,43.291790 86.396294,44.187336 
	C86.123726,45.001362 86.649178,46.082584 86.639557,47.731102 
	C86.550262,49.145588 86.460976,50.560078 86.087730,52.765232 
	C85.922104,55.535614 85.756477,58.306000 85.351440,61.680626 
	C85.337791,62.111717 85.324135,62.542812 85.037872,63.702152 
	C84.854309,67.828323 84.670753,71.954491 84.159988,76.660759 
	C83.763565,76.812775 83.367142,76.964790 82.609467,76.582428 
	C80.891556,77.762367 79.173637,78.942299 77.016060,80.664452 
	C75.477531,83.461021 73.939003,86.257599 71.991188,89.774910 
	C70.898415,93.354134 69.372757,96.998512 73.255211,99.946419 
	C77.834816,103.423691 79.923271,97.541389 84.022751,97.462082 
	C84.290977,98.040848 84.743248,99.016731 85.021873,100.656990 
	C85.053375,101.106697 85.084877,101.556404 85.022667,102.830185 
	C86.089928,103.745483 87.157188,104.660782 88.279579,105.623367 
	C89.281235,101.127350 90.041832,97.713333 91.258553,95.015327 
	C91.838188,95.793610 92.502823,96.522995 92.983276,97.358322 
	C95.580482,101.873795 97.413963,102.194702 102.614456,98.429253 
	C106.792686,95.968742 105.391899,99.743126 105.562378,101.245720 
	C105.940506,104.578712 107.006470,105.245033 109.658936,102.507011 
	C109.658936,102.507011 109.666245,102.220306 110.002205,101.573845 
M63.895359,101.979652 
	C64.819633,101.437805 66.574715,100.842438 66.543770,100.362122 
	C66.067154,92.963425 65.358253,85.579681 64.703285,78.192474 
	C64.093842,77.597244 63.484390,77.002022 62.874943,76.406792 
	C62.617847,77.550293 62.166058,78.689262 62.139309,79.838120 
	C62.050785,83.640259 62.117107,87.445984 62.121010,91.250328 
	C62.123734,93.909172 62.121536,96.568016 62.121536,100.315361 
	C61.856834,100.026970 62.577171,100.811775 63.895359,101.979652 
z"/>
<path fill="#D869C8" opacity="1.000000" stroke="none" 
	d="
M32.145031,112.942047 
	C44.831970,116.958183 56.700047,111.203880 53.248325,96.695976 
	C51.074802,87.560471 47.941666,78.534569 44.176552,69.924088 
	C38.437969,56.800449 33.490238,43.632339 35.110001,29.035128 
	C35.539066,25.168383 36.886330,21.229763 38.624512,17.727390 
	C40.655457,13.635111 44.325775,11.688725 49.216171,11.832107 
	C52.332531,11.923474 53.127922,12.902426 53.119198,15.904799 
	C53.109375,19.284061 52.850063,22.205208 48.672596,24.488720 
	C49.211422,20.980515 49.635830,18.217239 50.111809,15.118226 
	C43.917839,14.994713 41.391979,18.762873 39.914005,23.310659 
	C37.027569,32.192326 37.878384,41.224754 40.673767,49.850338 
	C43.381290,58.204830 47.386398,66.129692 50.399273,74.397156 
	C52.893528,81.241508 55.605446,88.176102 56.752594,95.306923 
	C59.226139,110.682816 53.583458,116.864731 37.220692,117.024811 
	C34.218952,115.875008 31.922714,115.098122 29.626478,114.321228 
	C29.696333,114.006126 29.766188,113.691025 29.836042,113.375923 
	C30.605705,113.231300 31.375368,113.086678 32.145031,112.942047 
z"/>
<path fill="#CD65BD" opacity="1.000000" stroke="none" 
	d="
M149.846542,89.035690 
	C151.056641,89.360764 152.266724,89.685829 153.476837,90.010910 
	C152.450043,92.190620 151.423264,94.370331 150.396454,96.550034 
	C149.276993,95.992508 148.014191,95.605881 147.082535,94.824455 
	C146.310028,94.176506 145.927734,93.063347 145.353210,92.124680 
	C141.006302,98.308426 140.698792,98.283401 136.158051,91.806213 
	C135.885849,91.417938 135.101364,91.388786 134.124695,91.388283 
	C133.469116,91.186607 133.244110,90.789177 133.019089,90.391747 
	C133.969711,88.955238 135.318069,87.638947 135.795486,86.059418 
	C137.159576,81.546303 137.740952,76.755394 139.472443,72.409294 
	C140.595520,69.590363 143.075592,67.060280 146.595978,69.698235 
	C145.691666,70.644287 144.649261,71.184441 144.579056,71.830269 
	C144.246811,74.887047 144.192352,77.973381 144.015244,81.047829 
	C143.852142,83.879143 143.658951,86.708725 143.464981,89.759521 
	C145.985565,89.473625 147.916061,89.254654 149.846542,89.035690 
M139.842209,90.286430 
	C140.029968,90.502502 140.193222,90.751350 140.417297,90.918846 
	C140.509613,90.987831 140.867233,90.906471 140.877274,90.851852 
	C141.876862,85.405609 142.854660,79.955353 143.833817,74.505356 
	C139.593658,78.855370 139.610565,84.175224 139.842209,90.286430 
z"/>
<path fill="#EA6DDA" opacity="1.000000" stroke="none" 
	d="
M85.195518,99.992607 
	C84.743248,99.016731 84.290977,98.040848 84.022751,97.462082 
	C79.923271,97.541389 77.834816,103.423691 73.255211,99.946419 
	C69.372757,96.998512 70.898415,93.354134 72.548950,89.446609 
	C73.871635,89.593491 74.636566,90.068680 75.288162,90.910141 
	C74.680206,93.008781 74.185600,94.741150 73.690987,96.473511 
	C74.174438,96.886078 74.657890,97.298645 75.141342,97.711212 
	C76.789963,96.588081 79.119987,95.829933 79.955002,94.270996 
	C82.153748,90.166061 83.150513,85.698189 80.003288,81.165131 
	C79.274323,81.006851 78.982353,80.945320 78.822624,80.574287 
	C80.293480,79.215454 81.632095,78.166130 82.970718,77.116806 
	C83.367142,76.964790 83.763565,76.812775 84.683624,76.404907 
	C86.093201,78.771996 86.979141,81.394928 87.865089,84.017860 
	C88.620316,87.518219 89.375549,91.018578 90.497200,94.444084 
	C90.863625,94.369232 90.802429,94.299316 90.802429,94.299316 
	C90.041832,97.713333 89.281235,101.127350 88.279579,105.623367 
	C87.157188,104.660782 86.089928,103.745483 85.233879,102.246643 
	C85.361900,101.106262 85.278709,100.549438 85.195518,99.992607 
M85.019165,96.421593 
	C85.278320,95.758934 85.537476,95.096275 85.796631,94.433617 
	C85.370323,94.338287 84.944008,94.242950 84.517700,94.147621 
	C84.468285,95.019257 84.418861,95.890892 85.019165,96.421593 
z"/>
<path fill="#D56AC6" opacity="1.000000" stroke="none" 
	d="
M119.045280,85.981400 
	C118.912735,75.715706 118.771751,65.450104 118.653419,55.184246 
	C118.622787,52.527222 118.480705,49.850571 118.752007,47.220291 
	C118.877411,46.004467 119.873199,44.878422 120.474373,43.711670 
	C121.465172,45.036190 123.329178,46.384644 123.293648,47.681034 
	C123.149742,52.931038 122.301041,58.156796 121.942223,63.407204 
	C121.572670,68.814674 121.470383,74.240402 121.375359,80.137070 
	C120.681473,82.404457 119.863380,84.192932 119.045280,85.981400 
z"/>
<path fill="#D266C0" opacity="1.000000" stroke="none" 
	d="
M90.845741,94.412109 
	C92.123589,90.879921 93.810204,87.390877 94.620491,83.708977 
	C95.745728,78.595955 99.478943,76.383018 104.109917,74.419739 
	C104.765434,75.356155 104.845970,76.143349 104.560547,76.940018 
	C103.124680,77.891830 102.054764,78.834175 100.706024,80.011200 
	C97.118538,85.443596 95.933014,90.995644 96.865967,96.901237 
	C97.556084,97.128479 98.246201,97.355721 98.936325,97.582970 
	C100.231369,94.296806 101.526421,91.010651 102.899948,88.121284 
	C104.009888,89.726089 105.041336,90.934113 105.958847,92.442291 
	C104.548943,94.782036 103.252975,96.821609 101.957001,98.861183 
	C97.413963,102.194702 95.580482,101.873795 92.983276,97.358322 
	C92.502823,96.522995 91.838188,95.793610 91.030487,94.657318 
	C90.802429,94.299316 90.863625,94.369232 90.845741,94.412109 
z"/>
<path fill="#EC6DDB" opacity="1.000000" stroke="none" 
	d="
M171.699539,90.790459 
	C166.129837,95.833229 164.378677,89.803307 161.409393,86.725266 
	C159.937302,88.809334 158.695984,90.566689 156.955154,93.031219 
	C152.658356,86.014328 154.288055,79.572136 156.589844,72.968353 
	C157.074692,76.323936 157.559540,79.679520 158.090958,83.357361 
	C162.072403,80.778481 159.663986,74.138298 166.431473,73.753891 
	C165.949844,76.358498 165.585800,78.522339 165.145203,80.670486 
	C164.143188,85.555878 165.595856,88.619690 169.775818,89.177200 
	C170.869400,89.890244 171.284470,90.340355 171.699539,90.790459 
z"/>
<path fill="#E26AD1" opacity="1.000000" stroke="none" 
	d="
M119.016090,86.397476 
	C119.863380,84.192932 120.681473,82.404457 121.742584,80.380066 
	C122.657425,78.112022 123.179535,76.013763 124.040520,74.065224 
	C125.024780,71.837700 126.297180,69.709320 128.843323,72.471085 
	C127.794334,73.449898 127.093300,73.986511 126.392273,74.523117 
	C126.671120,74.867966 126.949966,75.212822 127.228806,75.557678 
	C127.885506,74.633041 128.542206,73.708405 129.198914,72.783775 
	C129.464645,73.943451 129.730392,75.103134 129.634674,76.795700 
	C128.522156,78.487053 127.771118,79.645523 126.659668,80.983917 
	C125.606071,85.800117 124.912895,90.436386 124.219711,95.072662 
	C122.904305,98.132324 121.446663,97.875511 120.552010,94.966660 
	C119.743294,92.337234 119.486862,89.537941 119.016090,86.397476 
z"/>
<path fill="#DB6ACA" opacity="1.000000" stroke="none" 
	d="
M184.007599,68.905121 
	C181.710541,69.754433 178.116043,69.237869 178.537811,73.825806 
	C177.123169,74.071236 176.283432,74.045547 175.443695,74.019859 
	C176.007355,66.363945 176.653122,58.724491 177.983749,51.222382 
	C178.815826,51.350266 179.647903,51.478149 180.479980,51.606033 
	C180.479980,56.222244 180.479980,60.838459 180.479980,65.751060 
	C181.212936,65.804855 182.308746,65.885292 183.701080,66.404205 
	C184.000946,67.530167 184.004272,68.217644 184.007599,68.905121 
z"/>
<path fill="#F06ADD" opacity="1.000000" stroke="none" 
	d="
M100.984848,79.776520 
	C102.054764,78.834175 103.124680,77.891830 104.842880,77.079254 
	C106.271675,77.474915 107.052177,77.740822 107.832680,78.006721 
	C107.910118,81.011749 107.987556,84.016769 108.011887,87.720001 
	C108.193596,88.632210 108.428406,88.846214 108.663216,89.060226 
	C109.022400,91.751175 109.381584,94.442123 109.503876,97.859070 
	C109.400078,99.796814 109.533165,101.008560 109.666245,102.220306 
	C109.666245,102.220306 109.658936,102.507011 109.141037,102.363274 
	C108.095680,100.629288 107.473312,99.062866 107.066544,97.442329 
	C106.629730,95.702095 106.395447,93.911018 106.072784,92.142128 
	C105.041336,90.934113 104.009888,89.726089 102.869843,87.934555 
	C102.761246,87.351044 102.917351,87.006226 103.152466,86.724319 
	C102.901703,84.638046 102.415825,82.833694 101.743988,80.842361 
	C101.366966,80.362434 101.175903,80.069473 100.984848,79.776520 
z"/>
<path fill="#E76DD7" opacity="1.000000" stroke="none" 
	d="
M107.908150,77.542992 
	C107.052177,77.740822 106.271675,77.474915 105.208839,77.069778 
	C104.845970,76.143349 104.765434,75.356155 104.488129,74.342361 
	C104.332878,73.645111 104.374397,73.174438 104.774460,72.278229 
	C105.048843,71.222122 104.964684,70.591576 104.880524,69.961021 
	C104.848976,69.525063 104.817436,69.089096 104.934280,68.100006 
	C105.082672,67.546883 105.025787,67.065178 105.025787,67.065178 
	C105.027077,65.654373 105.028374,64.243561 105.284531,62.082489 
	C105.440918,58.555286 105.342445,55.778343 105.243973,53.001404 
	C105.270523,52.206440 105.297073,51.411472 105.703629,50.004345 
	C106.632317,47.160381 107.181007,44.928585 108.062637,41.342545 
	C108.876472,44.189411 109.274956,45.583321 109.673431,46.977230 
	C109.557243,47.764938 109.441055,48.552647 108.835968,49.795341 
	C108.220352,51.129852 108.093636,52.009377 107.966927,52.888905 
	C107.972488,60.952358 107.978058,69.015808 107.908150,77.542992 
z"/>
<path fill="#EC6DDB" opacity="1.000000" stroke="none" 
	d="
M175.321320,74.336403 
	C176.283432,74.045547 177.123169,74.071236 178.383362,74.177353 
	C178.803802,74.257774 178.741241,74.321487 178.533234,74.782974 
	C178.545425,77.480431 178.765610,79.716400 178.985794,81.952370 
	C178.985794,81.952370 179.062454,82.020340 178.996613,82.269257 
	C178.930756,82.518166 178.982239,82.940475 178.982239,82.940475 
	C179.015671,83.117271 179.049118,83.294075 178.896179,83.835236 
	C178.560318,84.528648 178.639008,84.796135 178.945877,85.002060 
	C179.710785,88.426430 180.700211,91.819969 181.175888,95.284058 
	C181.628891,98.583061 183.314331,97.873055 185.985718,97.033768 
	C187.137894,97.036110 187.585419,97.030258 187.829437,97.273926 
	C186.411545,98.644844 185.197128,99.766258 183.982712,100.887672 
	C178.742172,99.591797 177.266464,95.638184 176.859741,90.144257 
	C175.475525,87.809975 174.153656,86.217339 172.831787,84.624710 
	C172.889359,84.264832 172.946930,83.904953 173.402237,83.166641 
	C174.270035,80.525719 174.740082,78.263229 175.210144,76.000732 
	C175.206406,75.551468 175.202667,75.102211 175.321320,74.336403 
z"/>
<path fill="#DE6ECF" opacity="1.000000" stroke="none" 
	d="
M63.596436,101.788116 
	C62.577171,100.811775 61.856834,100.026970 62.121536,100.315361 
	C62.121536,96.568016 62.123734,93.909172 62.121010,91.250328 
	C62.117107,87.445984 62.050785,83.640259 62.139309,79.838120 
	C62.166058,78.689262 62.617847,77.550293 62.874943,76.406792 
	C63.484390,77.002022 64.093842,77.597244 64.703285,78.192474 
	C65.358253,85.579681 66.067154,92.963425 66.543770,100.362122 
	C66.574715,100.842438 64.819633,101.437805 63.596436,101.788116 
z"/>
<path fill="#F169E1" opacity="1.000000" stroke="none" 
	d="
M149.830902,88.609070 
	C147.916061,89.254654 145.985565,89.473625 143.464981,89.759521 
	C143.658951,86.708725 143.852142,83.879143 144.015244,81.047829 
	C144.192352,77.973381 144.246811,74.887047 144.579056,71.830269 
	C144.649261,71.184441 145.691666,70.644287 146.646118,70.028992 
	C147.006119,70.002548 147.255356,70.158287 147.332306,70.581787 
	C147.742004,71.159271 148.074753,71.313271 148.407516,71.467270 
	C148.407516,71.467270 148.513931,71.490982 148.411163,72.007446 
	C148.728455,76.042931 149.148529,79.561943 149.568604,83.080956 
	C149.650833,84.781448 149.733047,86.481949 149.830902,88.609070 
z"/>
<path fill="#DE6ECF" opacity="1.000000" stroke="none" 
	d="
M188.032928,97.024414 
	C187.585419,97.030258 187.137894,97.036110 186.355103,97.025238 
	C187.247864,95.511147 188.475906,94.013763 190.038208,92.177261 
	C190.590805,91.552368 190.578247,91.276794 190.334778,91.011406 
	C190.384583,90.459442 190.434372,89.907486 190.440033,88.935623 
	C190.395905,88.515724 190.446548,88.481056 190.446548,88.481056 
	C190.537994,87.913544 190.629456,87.346039 190.875488,86.154175 
	C190.735275,84.671516 190.440475,83.813217 190.145676,82.954918 
	C190.145676,82.954918 190.041397,82.906219 190.083862,82.538406 
	C189.752670,81.447945 189.378998,80.725296 189.005325,80.002640 
	C189.050461,79.479820 189.095581,78.957001 189.510712,78.261841 
	C189.880737,78.089508 189.894989,78.065552 189.894989,78.065552 
	C190.081879,77.985298 190.268768,77.905037 190.854950,78.156349 
	C191.466354,78.732193 191.729660,78.892365 192.044128,78.968430 
	C192.044128,78.968430 191.997025,78.993263 192.015106,79.265533 
	C192.326950,80.021584 192.620712,80.505356 192.914490,80.989128 
	C195.044647,86.410110 194.560684,91.585098 190.806656,96.741699 
	C189.450760,96.988243 188.741852,97.006325 188.032928,97.024414 
z"/>
<path fill="#F368E0" opacity="1.000000" stroke="none" 
	d="
M127.020081,80.803993 
	C127.771118,79.645523 128.522156,78.487053 129.558380,77.181824 
	C129.894531,80.330833 129.745895,83.648621 130.105652,86.910339 
	C130.230133,88.038918 131.617508,89.028206 132.723572,90.236435 
	C133.244110,90.789177 133.469116,91.186607 133.845093,91.758774 
	C132.583145,93.689651 131.170227,95.445801 129.196228,96.716553 
	C128.438629,94.187622 128.257843,92.142426 128.041962,90.100952 
	C127.714127,87.000618 127.361931,83.902847 127.020081,80.803993 
z"/>
<path fill="#F06ADD" opacity="1.000000" stroke="none" 
	d="
M86.371674,51.974564 
	C86.460976,50.560078 86.550262,49.145588 86.957642,47.229233 
	C90.532845,45.822910 89.332825,48.318874 89.310631,49.589306 
	C89.191612,56.402637 88.947548,63.213787 88.746689,70.025688 
	C88.741905,70.455620 88.737122,70.885544 88.420288,71.591423 
	C88.108238,71.867371 87.695076,71.967522 87.405060,71.978432 
	C86.726151,71.994499 86.337257,71.999657 85.933517,71.572403 
	C85.715935,68.417953 85.513206,65.695930 85.310478,62.973904 
	C85.324135,62.542812 85.337791,62.111717 85.761032,61.183788 
	C86.237640,57.782822 86.304657,54.878693 86.371674,51.974564 
z"/>
<path fill="#C465B6" opacity="1.000000" stroke="none" 
	d="
M88.870079,69.602791 
	C88.947548,63.213787 89.191612,56.402637 89.310631,49.589306 
	C89.332825,48.318874 90.532845,45.822910 87.049278,46.886692 
	C86.649178,46.082584 86.123726,45.001362 86.396294,44.187336 
	C86.696159,43.291790 87.729965,42.641994 88.444016,41.885132 
	C89.013657,42.575985 90.028442,43.236588 90.077782,43.962791 
	C90.323441,47.578255 90.531776,51.222328 90.342728,54.834843 
	C90.091949,59.626938 89.461044,64.399139 88.870079,69.602791 
z"/>
<path fill="#1D0C19" opacity="1.000000" stroke="none" 
	d="
M126.659668,80.983917 
	C127.361931,83.902847 127.714127,87.000618 128.041962,90.100952 
	C128.257843,92.142426 128.438629,94.187622 128.814697,96.616074 
	C127.528152,96.477730 126.062019,95.954460 124.407806,95.251930 
	C124.912895,90.436386 125.606071,85.800117 126.659668,80.983917 
z"/>
<path fill="#C465B6" opacity="1.000000" stroke="none" 
	d="
M85.174179,63.338028 
	C85.513206,65.695930 85.715935,68.417953 85.985367,71.842377 
	C86.354111,72.829178 86.656151,73.113579 86.958183,73.397987 
	C87.203812,72.921165 87.449440,72.444344 87.695076,71.967522 
	C87.695076,71.967522 88.108238,71.867371 88.318451,71.898987 
	C88.364098,75.686005 88.199532,79.441399 87.950027,83.607330 
	C86.979141,81.394928 86.093201,78.771996 84.847229,76.114861 
	C84.670753,71.954491 84.854309,67.828323 85.174179,63.338028 
z"/>
<path fill="#CD65BD" opacity="1.000000" stroke="none" 
	d="
M75.401505,90.543861 
	C74.636566,90.068680 73.871635,89.593491 72.753586,89.086235 
	C73.939003,86.257599 75.477531,83.461021 77.388680,80.499031 
	C78.070999,80.517006 78.380692,80.700401 78.690392,80.883797 
	C78.982353,80.945320 79.274323,81.006851 79.865479,81.490906 
	C78.576935,84.790245 76.989220,87.667053 75.401505,90.543861 
z"/>
<path fill="#B865A8" opacity="1.000000" stroke="none" 
	d="
M105.958847,92.442291 
	C106.395447,93.911018 106.629730,95.702095 107.066544,97.442329 
	C107.473312,99.062866 108.095680,100.629288 109.013214,102.428284 
	C107.006470,105.245033 105.940506,104.578712 105.562378,101.245720 
	C105.391899,99.743126 106.792686,95.968742 102.285728,98.645218 
	C103.252975,96.821609 104.548943,94.782036 105.958847,92.442291 
z"/>
<path fill="#D869C8" opacity="1.000000" stroke="none" 
	d="
M22.031307,93.088112 
	C22.027210,92.741158 22.130405,92.429756 22.883747,92.113312 
	C23.955437,92.726616 24.484272,93.380508 25.013107,94.034401 
	C24.978268,94.210945 24.943428,94.387489 24.471529,94.885803 
	C23.759632,95.882706 23.484791,96.557846 23.209949,97.232979 
	C23.209949,97.232979 23.135202,97.131340 23.043070,97.181015 
	C22.658443,97.449921 22.637026,97.704422 22.886683,97.994209 
	C22.800184,98.517525 22.713686,99.040833 22.350161,100.009911 
	C22.005672,100.613609 21.975281,100.778389 21.981960,100.950012 
	C21.981960,100.950012 22.011820,100.982483 21.795979,101.210083 
	C20.744629,102.292854 19.909122,103.148041 19.073614,104.003220 
	C18.941307,103.256973 18.809000,102.510719 19.024773,101.122726 
	C19.562927,99.284470 19.753002,98.087959 19.943077,96.891449 
	C20.102631,96.358955 20.262184,95.826454 20.881203,94.957962 
	C21.570879,94.110680 21.801094,93.599396 22.031307,93.088112 
z"/>
<path fill="#CF68C0" opacity="1.000000" stroke="none" 
	d="
M31.852180,112.770416 
	C31.375368,113.086678 30.605705,113.231300 29.836042,113.375923 
	C29.766188,113.691025 29.696333,114.006126 29.626478,114.321228 
	C31.922714,115.098122 34.218952,115.875008 36.785988,116.900604 
	C33.145130,115.958015 29.233475,114.766724 25.366812,113.243744 
	C25.269817,111.629768 25.127829,110.347488 24.985842,109.065208 
	C27.177004,110.243073 29.368168,111.420929 31.852180,112.770416 
z"/>
<path fill="#EC6DDB" opacity="1.000000" stroke="none" 
	d="
M184.446381,68.946243 
	C184.004272,68.217644 184.000946,67.530167 184.006897,66.499039 
	C187.069046,66.133972 190.379272,62.958923 194.258682,68.227280 
	C190.471161,68.534409 187.678146,68.760887 184.446381,68.946243 
z"/>
<path fill="#D266C0" opacity="1.000000" stroke="none" 
	d="
M109.809753,46.581573 
	C109.274956,45.583321 108.876472,44.189411 108.062637,41.342545 
	C107.181007,44.928585 106.632317,47.160381 105.844223,49.630039 
	C105.732132,47.736542 105.604507,45.546436 106.077324,43.494694 
	C106.387405,42.149078 107.565521,41.003490 108.354881,39.768318 
	C108.911522,41.082756 109.580391,42.364193 109.980461,43.724674 
	C110.201599,44.476692 109.972313,45.361160 109.809753,46.581573 
z"/>
<path fill="#CD65BD" opacity="1.000000" stroke="none" 
	d="
M149.685043,82.637955 
	C149.148529,79.561943 148.728455,76.042931 148.428879,72.058990 
	C148.966736,75.127693 149.384109,78.661331 149.685043,82.637955 
z"/>
<path fill="#D869C8" opacity="1.000000" stroke="none" 
	d="
M24.894150,108.803925 
	C25.127829,110.347488 25.269817,111.629768 25.132435,112.987671 
	C24.681164,113.031082 24.509262,112.998871 24.101021,112.522400 
	C23.479130,111.781166 23.093575,111.484184 22.708021,111.187195 
	C22.708023,111.187195 22.840677,111.170433 22.718861,110.979858 
	C22.300390,110.564018 22.003735,110.338760 21.707081,110.113495 
	C21.395584,109.783966 21.084085,109.454437 20.846161,108.573708 
	C21.746588,107.630997 22.573442,107.239487 23.400295,106.847969 
	C23.867683,107.412857 24.335070,107.977745 24.894150,108.803925 
z"/>
<path fill="#DB6ACA" opacity="1.000000" stroke="none" 
	d="
M172.528381,84.770157 
	C174.153656,86.217339 175.475525,87.809975 176.883255,89.749084 
	C175.396957,90.194092 173.824814,90.292610 171.976105,90.590790 
	C171.284470,90.340355 170.869400,89.890244 170.098221,89.149666 
	C170.569733,87.544662 171.397369,86.230125 172.528381,84.770157 
z"/>
<path fill="#CA65B9" opacity="1.000000" stroke="none" 
	d="
M187.829437,97.273926 
	C188.741852,97.006325 189.450760,96.988243 190.514832,96.962128 
	C188.811676,98.288231 186.753342,99.622375 184.338867,100.922096 
	C185.197128,99.766258 186.411545,98.644844 187.829437,97.273926 
z"/>
<path fill="#CF68C0" opacity="1.000000" stroke="none" 
	d="
M23.305618,106.481697 
	C22.573442,107.239487 21.746588,107.630997 20.842070,108.335770 
	C20.189451,107.343620 19.614494,106.038200 19.056576,104.368004 
	C19.909122,103.148041 20.744629,102.292854 21.775021,101.216927 
	C22.383585,102.702591 22.797262,104.409012 23.305618,106.481697 
z"/>
<path fill="#C465B6" opacity="1.000000" stroke="none" 
	d="
M86.229706,52.369896 
	C86.304657,54.878693 86.237640,57.782822 85.880737,60.881668 
	C85.756477,58.306000 85.922104,55.535614 86.229706,52.369896 
z"/>
<path fill="#DB6ACA" opacity="1.000000" stroke="none" 
	d="
M175.086578,76.347595 
	C174.740082,78.263229 174.270035,80.525719 173.477783,82.903061 
	C173.758057,80.910095 174.360535,78.802277 175.086578,76.347595 
z"/>
<path fill="#C465B6" opacity="1.000000" stroke="none" 
	d="
M78.822624,80.574287 
	C78.380692,80.700401 78.070999,80.517006 77.608513,80.227921 
	C79.173637,78.942299 80.891556,77.762367 82.790092,76.849617 
	C81.632095,78.166130 80.293480,79.215454 78.822624,80.574287 
z"/>
<path fill="#D266C0" opacity="1.000000" stroke="none" 
	d="
M105.138016,53.440639 
	C105.342445,55.778343 105.440918,58.555286 105.345245,61.663025 
	C105.111420,59.289177 105.071739,56.584526 105.138016,53.440639 
z"/>
<path fill="#CF68C0" opacity="1.000000" stroke="none" 
	d="
M25.252888,93.899940 
	C24.484272,93.380508 23.955437,92.726616 23.100697,91.989777 
	C23.658823,91.527916 24.542850,91.148994 25.426878,90.770073 
	C25.448809,91.768539 25.470739,92.767014 25.252888,93.899940 
z"/>
<path fill="#DB6ACA" opacity="1.000000" stroke="none" 
	d="
M179.062744,81.527214 
	C178.765610,79.716400 178.545425,77.480431 178.494904,74.805862 
	C178.822952,76.612190 178.981323,78.857124 179.062744,81.527214 
z"/>
<path fill="#CA65B9" opacity="1.000000" stroke="none" 
	d="
M188.907074,80.129333 
	C189.378998,80.725296 189.752670,81.447945 190.110718,82.487503 
	C189.666321,81.954956 189.237579,81.105492 188.907074,80.129333 
z"/>
<path fill="#D266C0" opacity="1.000000" stroke="none" 
	d="
M108.114059,52.668861 
	C108.093636,52.009377 108.220352,51.129852 108.578018,50.102970 
	C108.626381,50.786682 108.443787,51.617748 108.114059,52.668861 
z"/>
<path fill="#B865A8" opacity="1.000000" stroke="none" 
	d="
M109.834229,101.897079 
	C109.533165,101.008560 109.400078,99.796814 109.473213,98.275513 
	C109.787025,99.168587 109.894615,100.371216 109.834229,101.897079 
z"/>
<path fill="#CA65B9" opacity="1.000000" stroke="none" 
	d="
M190.117294,83.203796 
	C190.440475,83.813217 190.735275,84.671516 190.960724,85.877213 
	C190.623886,85.300629 190.356400,84.376656 190.117294,83.203796 
z"/>
<path fill="#CF68C0" opacity="1.000000" stroke="none" 
	d="
M19.704714,97.168945 
	C19.753002,98.087959 19.562927,99.284470 19.126148,100.752655 
	C19.075079,99.831696 19.270716,98.639069 19.704714,97.168945 
z"/>
<path fill="#D266C0" opacity="1.000000" stroke="none" 
	d="
M104.729706,70.199013 
	C104.964684,70.591576 105.048843,71.222122 104.925003,71.956390 
	C104.670967,71.519066 104.624924,70.978035 104.729706,70.199013 
z"/>
<path fill="#CF68C0" opacity="1.000000" stroke="none" 
	d="
M23.434490,97.083084 
	C23.484791,96.557846 23.759632,95.882706 24.302422,95.096184 
	C24.266590,95.634262 23.962809,96.283722 23.434490,97.083084 
z"/>
<path fill="#D56AC6" opacity="1.000000" stroke="none" 
	d="
M85.108696,100.324799 
	C85.278709,100.549438 85.361900,101.106262 85.280731,101.834602 
	C85.084877,101.556404 85.053375,101.106697 85.108696,100.324799 
z"/>
<path fill="#CF68C0" opacity="1.000000" stroke="none" 
	d="
M22.779142,111.426056 
	C23.093575,111.484184 23.479130,111.781166 23.931885,112.321869 
	C23.616144,112.265358 23.233204,111.965134 22.779142,111.426056 
z"/>
<path fill="#CF68C0" opacity="1.000000" stroke="none" 
	d="
M21.783897,93.240135 
	C21.801094,93.599396 21.570879,94.110680 21.105614,94.785187 
	C21.092539,94.429657 21.314514,93.910912 21.783897,93.240135 
z"/>
<path fill="#CA65B9" opacity="1.000000" stroke="none" 
	d="
M189.810516,77.966568 
	C189.894989,78.065552 189.880737,78.089508 189.872833,78.081589 
	C189.680145,77.998604 189.495331,77.923546 189.310532,77.848488 
	C189.449036,77.854858 189.587555,77.861221 189.810516,77.966568 
z"/>
<path fill="#CA65B9" opacity="1.000000" stroke="none" 
	d="
M192.919952,80.696442 
	C192.620712,80.505356 192.326950,80.021584 192.036087,79.247559 
	C192.334457,79.439468 192.629944,79.921608 192.919952,80.696442 
z"/>
<path fill="#DB6ACA" opacity="1.000000" stroke="none" 
	d="
M179.131195,82.763626 
	C178.982239,82.940475 178.930756,82.518166 178.964508,82.309174 
	C179.208527,82.316933 179.418793,82.533676 179.629059,82.750412 
	C179.735062,82.645927 179.841080,82.541443 179.947098,82.436951 
	C179.724777,82.486893 179.502457,82.536827 179.131195,82.763626 
z"/>
<path fill="#CA65B9" opacity="1.000000" stroke="none" 
	d="
M190.211731,91.242477 
	C190.578247,91.276794 190.590805,91.552368 190.237396,91.917549 
	C190.097794,91.822487 190.093246,91.648018 190.211731,91.242477 
z"/>
<path fill="#CF68C0" opacity="1.000000" stroke="none" 
	d="
M23.043831,97.815903 
	C22.637026,97.704422 22.658443,97.449921 23.103794,97.198105 
	C23.256653,97.165512 23.200981,97.637596 23.043831,97.815903 
z"/>
<path fill="#CD65BD" opacity="1.000000" stroke="none" 
	d="
M148.276825,71.235031 
	C148.074753,71.313271 147.742004,71.159271 147.331680,70.728729 
	C147.551468,70.635712 147.848801,70.819252 148.276825,71.235031 
z"/>
<path fill="#D266C0" opacity="1.000000" stroke="none" 
	d="
M104.918976,67.159988 
	C105.025787,67.065178 105.082672,67.546883 105.035500,67.784760 
	C104.761971,67.821083 104.703255,67.565132 104.918976,67.159988 
z"/>
<path fill="#CA65B9" opacity="1.000000" stroke="none" 
	d="
M192.010284,78.696671 
	C191.729660,78.892365 191.466354,78.732193 191.129211,78.289978 
	C191.328308,78.202988 191.652374,78.313950 192.010284,78.696671 
z"/>
<path fill="#CF68C0" opacity="1.000000" stroke="none" 
	d="
M22.103487,100.862152 
	C21.975281,100.778389 22.005672,100.613609 22.136534,100.347931 
	C22.382332,100.409920 22.390692,100.587959 22.103487,100.862152 
z"/>
<path fill="#CA65B9" opacity="1.000000" stroke="none" 
	d="
M190.242798,88.618896 
	C190.446548,88.481056 190.395905,88.515724 190.439026,88.518936 
	C190.334442,88.600349 190.186737,88.678543 190.242798,88.618896 
z"/>
<path fill="#B865A8" opacity="1.000000" stroke="none" 
	d="
M108.569550,88.864632 
	C108.428406,88.846214 108.193596,88.632210 108.002785,88.169304 
	C108.237213,88.142784 108.380249,88.392326 108.569550,88.864632 
z"/>
<path fill="#DB6ACA" opacity="1.000000" stroke="none" 
	d="
M179.037628,84.750687 
	C178.639008,84.796135 178.560318,84.528648 178.830688,84.097076 
	C179.010834,84.162811 179.070099,84.331070 179.037628,84.750687 
z"/>
<path fill="#CF68C0" opacity="1.000000" stroke="none" 
	d="
M21.797026,110.391449 
	C22.003735,110.338760 22.300390,110.564018 22.717684,111.046707 
	C22.521206,111.092545 22.204090,110.880966 21.797026,110.391449 
z"/>
<path fill="#240A20" opacity="1.000000" stroke="none" 
	d="
M139.780212,89.901627 
	C139.610565,84.175224 139.593658,78.855370 143.833817,74.505356 
	C142.854660,79.955353 141.876862,85.405609 140.877274,90.851852 
	C140.867233,90.906471 140.509613,90.987831 140.417297,90.918846 
	C140.193222,90.751350 140.029968,90.502502 139.780212,89.901627 
z"/>
<path fill="#280F23" opacity="1.000000" stroke="none" 
	d="
M75.288162,90.910141 
	C76.989220,87.667053 78.576935,84.790245 80.302460,81.587646 
	C83.150513,85.698189 82.153748,90.166061 79.955002,94.270996 
	C79.119987,95.829933 76.789963,96.588081 75.141342,97.711212 
	C74.657890,97.298645 74.174438,96.886078 73.690987,96.473511 
	C74.185600,94.741150 74.680206,93.008781 75.288162,90.910141 
z"/>
<path fill="#020102" opacity="1.000000" stroke="none" 
	d="
M84.694305,96.592056 
	C84.418861,95.890892 84.468285,95.019257 84.517700,94.147621 
	C84.944008,94.242950 85.370323,94.338287 85.796631,94.433617 
	C85.537476,95.096275 85.278320,95.758934 84.694305,96.592056 
z"/>
<path fill="#2A0E26" opacity="1.000000" stroke="none" 
	d="
M102.917351,87.006226 
	C102.917351,87.006226 102.761246,87.351044 102.791351,87.537766 
	C101.526421,91.010651 100.231369,94.296806 98.936325,97.582970 
	C98.246201,97.355721 97.556084,97.128479 96.865967,96.901237 
	C95.933014,90.995644 97.118538,85.443596 100.706024,80.011200 
	C101.175903,80.069473 101.366966,80.362434 101.720795,81.223236 
	C102.228157,83.529457 102.572754,85.267838 102.917351,87.006226 
z"/>
<path fill="#F368E0" opacity="1.000000" stroke="none" 
	d="
M129.110336,72.878685 
	C128.542206,73.708405 127.885506,74.633041 127.228806,75.557678 
	C126.949966,75.212822 126.671120,74.867966 126.392273,74.523117 
	C127.093300,73.986511 127.794334,73.449898 128.855774,72.857323 
	C129.216187,72.801353 129.021759,72.973595 129.110336,72.878685 
z"/>
<path fill="#D266C0" opacity="1.000000" stroke="none" 
	d="
M103.152466,86.724319 
	C102.572754,85.267838 102.228157,83.529457 101.906754,81.410202 
	C102.415825,82.833694 102.901703,84.638046 103.152466,86.724319 
z"/>
<path fill="#EA6DDA" opacity="1.000000" stroke="none" 
	d="
M87.405060,71.978432 
	C87.449440,72.444344 87.203812,72.921165 86.958183,73.397987 
	C86.656151,73.113579 86.354111,72.829178 86.000229,72.274796 
	C86.337257,71.999657 86.726151,71.994499 87.405060,71.978432 
z"/>
</svg>